<svg width="132" height="133" viewBox="0 0 132 133" fill="none" xmlns="http://www.w3.org/2000/svg">
<path d="M86.8685 128.729C52.6457 140.36 17.1202 122.768 4.62805 89.5822C-8.15987 55.6147 8.9704 17.703 42.8974 4.89977C76.8244 -7.90341 114.691 9.2473 127.479 43.2148C139.587 75.3803 124.867 111.08 94.4644 125.654" fill="#0074BF"/>
<path d="M41.7709 83.4702C38.3159 84.3334 32.545 92.2598 33.6715 98.7937C34.798 105.328 51.0031 113.437 52.803 115.018C54.6029 116.6 64.1183 129.214 71.708 126.738C82.0604 123.36 79.8578 96.2608 75.5343 92.4867C71.8213 89.2481 61.1038 90.7224 53.7029 89.1094C47.202 87.6918 43.8792 82.9473 41.7772 83.4765L41.7709 83.4702Z" fill="#29AE81"/>
<path d="M69.6563 127.299C63.6463 127.299 57.0572 120.027 54.0616 116.72C53.4197 116.014 52.91 115.453 52.6331 115.201C52.2492 114.861 51.0849 114.161 49.6186 113.273C44.2693 110.034 34.3134 104.017 33.4197 98.8316C32.3121 92.3985 37.9383 84.1697 41.708 83.2246C42.7526 82.9662 43.9609 83.7916 45.6287 84.9384C47.5607 86.2678 50.1976 88.0825 53.7533 88.8575C56.6293 89.4875 60.0214 89.6451 63.3065 89.7963C68.4795 90.0357 73.3694 90.2625 75.6979 92.2914C79.0837 95.2465 80.2416 108.724 78.6369 116.625C77.4852 122.302 75.1126 125.881 71.7835 126.971C71.0912 127.198 70.3801 127.299 69.6626 127.299H69.6563ZM42.1044 83.6782C42.01 83.6782 41.9156 83.6908 41.8275 83.7097C38.5991 84.5162 32.7778 92.1528 33.9106 98.7434C34.7665 103.702 44.5903 109.644 49.8766 112.838C51.4248 113.771 52.5387 114.451 52.9603 114.817C53.2624 115.081 53.7533 115.623 54.4329 116.373C57.7243 120.002 65.4273 128.508 71.6199 126.486C75.5972 125.188 77.3593 120.349 78.1334 116.524C80.0025 107.319 78.1208 95.0826 75.358 92.6694C73.1617 90.754 68.3599 90.5335 63.275 90.294C59.971 90.1428 56.5538 89.979 53.64 89.3426C49.9899 88.5487 47.3027 86.6963 45.3392 85.3479C43.9987 84.428 42.91 83.6782 42.1044 83.6782V83.6782Z" fill="black"/>
<path d="M114.641 110.608C128.939 94.8306 135.1 72.5699 129.87 50.9897C121.475 49.3452 106.818 47.5684 103.879 48.545C100.506 49.6729 89.8074 66.2502 92.4003 76.2559C93.9736 82.3424 108.826 79.1857 111.079 80.0867C113.162 80.9184 109.669 102.53 114.641 110.601V110.608Z" fill="#29AE81"/>
<path d="M114.641 110.86C114.641 110.86 114.628 110.86 114.615 110.86C114.54 110.853 114.464 110.809 114.427 110.74C111.362 105.762 111.475 95.8198 111.557 88.555C111.601 84.6359 111.645 80.5908 110.991 80.3262C110.393 80.0868 108.656 80.1687 106.642 80.2569C101.343 80.4963 93.3316 80.8555 92.1611 76.3252C89.5494 66.2503 100.405 49.4398 103.804 48.3119C106.843 47.2975 121.538 49.1058 129.927 50.744C130.021 50.7629 130.097 50.8385 130.122 50.9331C135.264 72.1667 129.549 94.5407 114.829 110.778C114.779 110.828 114.716 110.86 114.641 110.86V110.86ZM109.373 79.6646C110.198 79.6646 110.808 79.715 111.173 79.8599C112.104 80.2317 112.117 82.9473 112.054 88.5613C111.979 95.6245 111.872 105.239 114.678 110.186C129.077 94.1312 134.672 72.1226 129.663 51.2103C121.211 49.5721 106.793 47.8394 103.955 48.7908C100.644 49.8934 90.0843 66.3322 92.6394 76.1992C93.7092 80.3388 101.475 79.986 106.61 79.7528C107.68 79.7024 108.612 79.6646 109.367 79.6646H109.373Z" fill="black"/>
<path d="M20.3864 81.2715C28.0579 78.8394 21.6262 71.562 22.6394 68.9724C23.6526 66.3828 37.6048 53.7245 39.0648 50.4607C40.5249 47.1906 43.5456 35.887 37.6426 32.85C32.394 30.147 29.4676 37.2038 25.5658 33.6754C21.4311 29.939 28.9138 22.9515 22.1485 17.5139C21.8276 17.8038 21.5129 18.0999 21.192 18.396C5.8427 32.787 -1.9169 54.0143 0.996882 75.2732C9.73823 72.9671 12.7968 83.6847 20.3927 81.2778L20.3864 81.2715Z" fill="#29AE81"/>
<path d="M18.1775 81.8827C15.5029 81.8827 13.382 80.3012 11.1605 78.6504C8.33483 76.546 5.40217 74.3659 1.05982 75.5126C0.990589 75.5315 0.915065 75.5126 0.858426 75.4811C0.795493 75.4433 0.757735 75.374 0.751442 75.3047C-2.14346 54.1719 5.43363 32.8248 21.0283 18.2133L21.2738 17.9802C21.5066 17.7597 21.7458 17.5392 21.9849 17.3249C22.0793 17.243 22.2178 17.2367 22.3122 17.3186C26.214 20.4501 25.5217 24.092 24.9113 27.2991C24.4393 29.7879 24.0239 31.9364 25.742 33.4927C27.5733 35.1498 29.1718 34.3118 31.0158 33.3352C32.8974 32.346 35.0372 31.2245 37.7621 32.6295C43.6967 35.6854 40.9654 46.8504 39.304 50.5678C38.5299 52.2943 34.4519 56.478 30.506 60.5294C26.9881 64.1334 23.3569 67.8635 22.8849 69.0732C22.5954 69.8167 23.0359 71.1273 23.4953 72.5198C24.2002 74.6179 24.9931 76.9933 24.0051 78.9403C23.4072 80.1185 22.2492 80.9628 20.4745 81.5236C19.6627 81.7819 18.9012 81.8953 18.1838 81.8953L18.1775 81.8827ZM3.43867 74.6872C6.69229 74.6872 9.1089 76.4892 11.4689 78.2472C14.175 80.2634 16.7363 82.1725 20.3172 81.0321C21.966 80.5091 23.0233 79.7467 23.5519 78.7008C24.4456 76.9429 23.6841 74.6746 23.0107 72.671C22.4947 71.1273 22.0479 69.7978 22.4066 68.8842C22.9163 67.5862 26.4217 63.9822 30.141 60.1765C34.0554 56.1629 38.1083 52.0044 38.8446 50.3599C40.4557 46.7559 43.1429 35.9626 37.5356 33.0769C35.0435 31.7915 33.1177 32.8059 31.2549 33.7826C29.3229 34.797 27.4978 35.761 25.4085 33.8645C23.4827 32.1192 23.9358 29.7312 24.4204 27.2046C25.0246 24.0353 25.6476 20.7589 22.1674 17.8479C21.9849 18.018 21.8024 18.1818 21.6199 18.352L21.3745 18.5788C5.97486 33.0202 -1.55189 54.0774 1.21715 74.9582C2.00381 74.7691 2.74011 74.6872 3.44496 74.6872H3.43867Z" fill="black"/>
<path d="M49.8704 9.67567C55.6035 5.85109 69.7886 11.0303 70.4619 14.8549C71.5192 20.8532 56.5035 26.9335 52.6835 26.6815C44.1309 26.1207 43.1177 14.1744 49.8704 9.66937V9.67567Z" fill="#29AE81"/>
<path d="M52.9226 26.9461C52.8345 26.9461 52.7464 26.9461 52.6709 26.9398C49.1466 26.7067 46.4783 24.4762 45.5469 20.973C44.5651 17.2996 45.6916 12.1645 49.7382 9.46773C53.3883 7.02933 60.248 8.14457 65.0749 10.2112C68.3474 11.61 70.4619 13.3364 70.7199 14.8171C70.9717 16.2348 70.399 17.7343 69.0271 19.2654C65.1567 23.5815 56.1259 26.9461 52.9289 26.9461H52.9226ZM50.0151 9.88358C46.1636 12.4543 45.1001 17.3374 46.0315 20.8406C46.9188 24.1737 49.3543 26.2089 52.7023 26.4294C55.4902 26.6122 64.8295 23.1782 68.6432 18.9189C69.9081 17.5075 70.4368 16.1529 70.2165 14.8927C69.9899 13.601 67.9383 11.9817 64.8672 10.6649C60.1599 8.64862 53.5079 7.54599 50.0088 9.87728L50.0151 9.88358Z" fill="black"/>
<path d="M126.031 39.6926C119.323 24.5581 107.485 13.1096 93.3757 6.63867C93.1617 14.6659 92.2933 19.4041 93.64 20.2673C95.2133 21.2817 100.726 21.2817 102.079 23.5374C103.432 25.793 93.8666 35.2568 99.1529 40.6629C103.854 45.4704 108.152 37.0588 126.031 39.6926V39.6926Z" fill="#29AE81"/>
<path d="M102.514 42.4208C101.242 42.4208 100.116 41.9986 98.9704 40.833C95.4462 37.2289 98.2467 31.9552 100.286 28.0991C101.305 26.1711 102.268 24.3502 101.859 23.6634C101.066 22.3402 98.5613 21.8109 96.5475 21.3888C95.2448 21.1179 94.1246 20.8784 93.5016 20.4815C92.4317 19.7947 92.5764 17.35 92.8345 12.9142C92.9415 11.0933 93.061 9.02665 93.124 6.63866C93.124 6.55675 93.168 6.47484 93.2435 6.43074C93.3128 6.38663 93.4072 6.38033 93.4827 6.41813C108.115 13.1222 119.757 24.9046 126.264 39.598C126.302 39.68 126.289 39.7808 126.233 39.8501C126.176 39.9257 126.082 39.9572 125.994 39.9446C116.535 38.5521 111.016 40.2281 106.988 41.4568C105.251 41.986 103.81 42.4271 102.514 42.4271V42.4208ZM93.6148 7.02931C93.5519 9.26609 93.4386 11.213 93.3379 12.9394C93.1051 16.9089 92.954 19.5301 93.7785 20.053C94.326 20.4059 95.4588 20.639 96.6545 20.891C98.876 21.3573 101.387 21.8865 102.293 23.3987C102.853 24.3312 101.96 26.0073 100.733 28.3259C98.7627 32.0434 96.0692 37.1344 99.3354 40.4739C101.425 42.6098 103.464 41.9923 106.843 40.959C110.626 39.806 116.315 38.0732 125.616 39.3649C119.172 25.0936 107.838 13.6325 93.6148 7.0167V7.02931Z" fill="black"/>
<path d="M61.5632 60.7939C61.4311 60.7939 61.3241 60.6931 61.3115 60.5608C61.1479 58.198 62.9351 56.1376 65.2951 55.9738C67.6551 55.81 69.7067 57.5994 69.8766 59.9622C69.8829 60.1008 69.7822 60.2205 69.6438 60.2331C69.4927 60.2457 69.3858 60.1386 69.3732 60C69.2284 57.9144 67.4097 56.3329 65.3329 56.4779C64.326 56.5472 63.4008 57.0071 62.7401 57.7695C62.0793 58.5319 61.7457 59.5085 61.8212 60.523C61.8275 60.6616 61.7268 60.7813 61.5884 60.7939C61.5884 60.7939 61.5758 60.7939 61.5695 60.7939H61.5632Z" fill="black"/>
<path d="M80.2542 59.5401C80.1221 59.5401 80.0151 59.4392 80.0025 59.3069C79.8389 56.9441 81.6262 54.8838 83.9861 54.72C85.1252 54.6443 86.2391 55.0098 87.1013 55.7659C87.9635 56.522 88.4858 57.5679 88.5676 58.7084C88.5739 58.847 88.4732 58.9667 88.3348 58.9793C88.19 58.9919 88.0768 58.8848 88.0642 58.7462C87.9949 57.738 87.5355 56.8118 86.7741 56.1502C86.0126 55.4824 85.0308 55.161 84.0239 55.2303C83.017 55.2996 82.0919 55.7596 81.4311 56.522C80.7703 57.2844 80.4367 58.261 80.5122 59.2754C80.5185 59.414 80.4178 59.5338 80.2794 59.5464C80.2794 59.5464 80.2668 59.5464 80.2605 59.5464L80.2542 59.5401Z" fill="black"/>
<path d="M74.2693 65.9795C74.1686 65.9795 74.0742 65.9165 74.0365 65.8157C73.9861 65.6834 74.0553 65.5385 74.1812 65.4881C77.6677 64.1775 78.9641 62.2369 78.7061 60.8948C78.5299 59.9938 77.6803 59.4582 76.5034 59.4834C75.0371 59.5149 73.6526 58.7147 72.8596 57.3916C72.7904 57.2719 72.8282 57.1143 72.9477 57.045C73.0673 56.9757 73.2246 57.0135 73.2939 57.1332C73.9924 58.2989 75.2196 59.0109 76.4908 58.9794C77.9068 58.9416 78.9767 59.6599 79.1969 60.8003C79.4738 62.2369 78.3725 64.4547 74.3574 65.9669C74.326 65.9795 74.3008 65.9858 74.2693 65.9858V65.9795Z" fill="black"/>
<path d="M72.9603 75.4937C69.7445 75.4937 66.2769 74.8636 62.8219 73.6286C58.2089 71.9778 54.2442 69.4008 52.4695 66.8994C52.3876 66.786 52.4128 66.6285 52.5261 66.5466C52.6394 66.4647 52.7967 66.4962 52.8785 66.6033C56.1888 71.2659 67.9886 76.6404 77.4978 74.5108C77.6425 74.4793 77.7684 74.5675 77.7998 74.6998C77.8313 74.8384 77.7432 74.9707 77.611 75.0022C76.151 75.3299 74.5903 75.4937 72.9666 75.4937H72.9603Z" fill="black"/>
<path d="M49.0585 68.3108C48.6809 68.3108 48.3033 68.2667 47.932 68.1785C47.7999 68.147 47.7117 68.0084 47.7432 67.8761C47.7747 67.7437 47.9131 67.6555 48.0453 67.687C49.1718 67.958 50.3297 67.7689 51.3115 67.1641C52.2932 66.5592 52.9855 65.6078 53.2498 64.4799C53.4197 63.7553 53.4071 62.9993 53.1995 62.2936C53.1617 62.1613 53.2372 62.0226 53.3694 61.9848C53.5015 61.947 53.64 62.0226 53.6841 62.155C53.9106 62.9489 53.9295 63.7931 53.7407 64.5996C53.4449 65.8535 52.6771 66.9183 51.5758 67.5925C50.808 68.0651 49.9396 68.3108 49.0585 68.3108V68.3108Z" fill="black"/>
<path d="M60.8017 48.1986C59.1655 48.8098 57.2649 50.3094 56.8244 49.6982C56.3839 49.087 57.8187 47.1275 59.2473 46.0122C61.601 44.185 63.9358 47.033 60.8017 48.1986Z" fill="#29AE81"/>
<path d="M57.1391 50.0951C56.9188 50.0951 56.7426 50.0195 56.6167 49.8431C56.0189 49.0177 57.6866 46.9069 59.09 45.8106C60.1284 45.0041 61.1479 45.0608 61.752 45.3884C62.287 45.672 62.5953 46.1886 62.5639 46.7305C62.5198 47.4362 61.9031 48.06 60.8835 48.438C60.3109 48.6522 59.7067 48.9736 59.1214 49.2886C58.3096 49.7234 57.6173 50.0951 57.1328 50.0951H57.1391ZM60.8206 45.6657C60.4053 45.6657 59.9144 45.8106 59.4046 46.2075C57.8187 47.4362 56.7678 49.1878 57.0258 49.5469C57.1831 49.7612 58.2089 49.2067 58.8886 48.8413C59.4613 48.5325 60.1032 48.186 60.7136 47.9592C61.538 47.6504 62.0352 47.1905 62.0667 46.6927C62.0919 46.3525 61.8842 46.0185 61.5192 45.8295C61.3304 45.7287 61.0912 45.6657 60.8143 45.6657H60.8206Z" fill="black"/>
<path d="M83.2939 46.6614C84.9994 47.0394 87.0824 48.2681 87.4411 47.6002C87.7999 46.9323 86.107 45.187 84.5337 44.2797C81.9471 42.7864 80.0277 45.9305 83.2939 46.6614V46.6614Z" fill="#29AE81"/>
<path d="M87.0258 48.0475C86.5475 48.0475 85.8741 47.7955 85.1001 47.5119C84.477 47.2788 83.8351 47.0394 83.2373 46.9071C82.1737 46.6676 81.4814 46.1384 81.343 45.4453C81.236 44.916 81.4688 44.3615 81.966 44.0087C82.5261 43.6055 83.5204 43.4101 84.6658 44.0654C86.2077 44.9601 88.146 46.8251 87.6677 47.7262C87.5419 47.9593 87.3216 48.0538 87.0321 48.0538L87.0258 48.0475ZM83.3505 46.4156C83.9799 46.5542 84.6721 46.8125 85.2763 47.0394C86 47.3103 87.095 47.7136 87.2209 47.4867C87.4286 47.0961 86.1447 45.5083 84.4141 44.5065C83.4827 43.9709 82.696 44.1095 82.2618 44.4183C81.9345 44.6577 81.7709 45.0105 81.8402 45.3445C81.9408 45.8359 82.4946 46.2266 83.3505 46.4156V46.4156Z" fill="black"/>
</svg>
